# xmcd
#
# Track frame offsets:
#	150
#	19814
#	34962
#	54225
#	63657
#	94403
#	112685
#	128993
#	151779
#	190530
#	202148
#	221063
#	253908
#	272937
#	295503
#	326382
#
# Disc length: 4774 seconds
# Revision: 0
# Processed by: cddbd v1.5.2PL0 Copyright (c) Steve Scherf et al.
# Submitted via: dBpowerAMP V12.0
#
DISCID=eb12a410
DTITLE=Angry Johnny and The Killbillies - The Zekordings
DYEAR=1900
DGENRE=country
TTITLE0=Get Down on them Prayin Bones
TTITLE1=Ballad of the Crankyville Trolley
TTITLE2=The Best Girl in the World
TTITLE3=Bottle of Wine
TTITLE4=Fall From Grace
TTITLE5=Tell My Mother
TTITLE6=Under My Skin
TTITLE7=Kansas City
TTITLE8=Milo Kane
TTITLE9=She Got a New Boyfriend
TTITLE10=What Happened to John?
TTITLE11=Won't Get Me Out of Your Mind
TTITLE12=Otis Grey
TTITLE13=Murder of Crows
TTITLE14=Who's Laughing Now?
TTITLE15=All American Girl
EXTD=
EXTT0=
EXTT1=
EXTT2=
EXTT3=
EXTT4=
EXTT5=
EXTT6=
EXTT7=
EXTT8=
EXTT9=
EXTT10=
EXTT11=
EXTT12=
EXTT13=
EXTT14=
EXTT15=
PLAYORDER=
